REM GENRE Trance
REM DATE 2003
REM DISCID 28041903
REM COMMENT "ExactAudioCopy v0.95b4"
PERFORMER "DJ Tiësto"
TITLE "Traffic"
FILE "DJ Tiësto\Traffic\01-Traffic (Radio Edit).wav" WAVE
  TRACK 01 AUDIO
    TITLE "Traffic (Radio Edit)"
    PERFORMER "DJ Tiësto"
    INDEX 01 00:00:00
FILE "DJ Tiësto\Traffic\02-Traffic (Original Mix).wav" WAVE
  TRACK 02 AUDIO
    TITLE "Traffic (Original Mix)"
    PERFORMER "DJ Tiësto"
    INDEX 01 00:00:00
FILE "DJ Tiësto\Traffic\03-Traffic (Max Walder Remix).wav" WAVE
  TRACK 03 AUDIO
    TITLE "Traffic (Max Walder Remix)"
    PERFORMER "DJ Tiësto"
    INDEX 01 00:00:00
